<?xml version="1.0" standalone="no"?>
<!DOCTYPE svg PUBLIC "-//W3C//DTD SVG 20010904//EN"
 "http://www.w3.org/TR/2001/REC-SVG-20010904/DTD/svg10.dtd">
<svg version="1.0" xmlns="http://www.w3.org/2000/svg"
 width="4800.000000pt" height="4800.000000pt" viewBox="0 0 4800.000000 4800.000000"
 preserveAspectRatio="xMidYMid meet">

<g transform="translate(0.000000,4800.000000) scale(0.100000,-0.100000)"
fill="#000000" stroke="none">
<path d="M8632 29940 c-354 -36 -691 -127 -962 -260 -308 -150 -585 -366 -818
-637 -221 -258 -328 -454 -483 -888 -41 -114 -89 -320 -89 -379 0 -42 -20 -63
-63 -71 -18 -3 -369 -9 -782 -15 -669 -9 -831 -15 -927 -36 -42 -8 -102 -62
-116 -102 -20 -57 -31 -256 -77 -1417 -4 -77 -13 -264 -21 -415 -29 -555 -103
-2225 -124 -2785 -5 -154 -15 -395 -20 -535 -6 -140 -17 -439 -25 -665 -9
-225 -22 -556 -30 -735 -8 -179 -19 -451 -25 -605 -5 -154 -12 -318 -15 -365
-3 -47 -10 -218 -15 -380 -12 -355 -17 -478 -36 -850 -18 -366 -18 -521 0
-564 23 -54 103 -123 171 -145 59 -20 103 -20 5005 -23 l4945 -3 57 28 c81 40
135 97 155 166 14 49 15 97 10 386 -4 182 -11 445 -17 585 -5 140 -14 449 -20
685 -6 237 -17 543 -25 680 -24 406 -65 1257 -75 1575 -12 369 -28 727 -40
935 -5 88 -14 277 -20 420 -6 143 -13 276 -15 295 -3 19 -10 249 -15 510 -6
261 -17 606 -25 765 -8 160 -24 495 -35 745 -11 250 -24 552 -30 670 -5 118
-15 332 -20 475 -16 394 -26 492 -54 535 -12 19 -28 51 -34 70 -28 83 -16 82
-968 89 -673 5 -834 9 -847 19 -24 20 -55 110 -82 237 -111 513 -328 917 -680
1270 -322 322 -725 546 -1185 657 -69 16 -152 34 -185 39 -262 40 -279 41
-770 44 -269 2 -527 -1 -573 -5z m1138 -574 c256 -35 521 -116 698 -212 326
-176 585 -426 786 -758 70 -115 141 -277 214 -491 36 -104 47 -164 33 -184
-16 -25 -124 -30 -656 -31 -1169 -2 -3951 13 -3967 22 -23 11 -23 37 2 123 11
39 25 96 30 127 12 64 96 271 134 328 13 19 33 56 46 80 64 126 237 347 378
481 85 82 201 173 307 242 247 158 624 269 995 291 164 9 898 -3 1000 -18z
m1560 -2250 c148 -4 195 -15 205 -45 3 -9 9 -129 15 -266 9 -242 16 -293 47
-342 19 -29 124 -90 178 -104 39 -10 52 -8 116 16 97 38 169 110 192 192 15
54 26 235 27 435 0 76 1 78 30 93 25 13 113 15 649 15 l621 0 14 -23 c12 -18
18 -107 30 -437 28 -731 36 -951 46 -1140 6 -102 19 -403 30 -670 26 -636 46
-1074 70 -1570 10 -223 24 -542 30 -710 17 -516 30 -851 45 -1184 8 -175 15
-351 15 -391 0 -68 -1 -72 -27 -86 -24 -12 -676 -14 -4448 -17 -2431 -2 -4447
-1 -4480 3 -33 3 -67 10 -74 14 -16 10 -17 167 -1 405 5 89 19 373 30 631 11
259 22 497 25 530 3 33 9 173 15 310 5 138 12 309 15 380 3 72 10 263 15 425
10 282 39 923 60 1340 5 107 14 314 20 460 5 146 14 364 20 485 6 121 17 371
25 555 21 451 34 629 51 663 l15 27 629 0 c542 0 631 -2 643 -15 18 -18 24
-89 31 -347 5 -174 7 -191 30 -241 27 -56 52 -79 135 -122 107 -56 177 -42
287 58 79 73 94 109 104 264 4 67 8 127 7 135 -4 97 5 237 17 254 13 18 32 19
283 24 310 6 3996 2 4213 -4z m2337 -6791 c49 -11 56 -41 65 -273 5 -119 18
-419 29 -667 36 -805 36 -720 8 -738 -22 -14 -481 -16 -4608 -18 -4450 -2
-4584 -2 -4597 16 -17 23 -18 108 -4 439 5 132 17 423 25 646 17 446 27 556
50 580 14 13 83 16 513 20 648 7 8490 2 8519 -5z"/>
<path d="M17074 29523 c-8 -3 -10 -1632 -6 -5521 l5 -5517 39 -7 c21 -4 64 -6
96 -5 l57 3 2 5517 c1 4250 -1 5519 -10 5522 -18 5 -171 12 -183 8z"/>
<path d="M40845 28529 c-247 -15 -527 -75 -840 -181 -476 -159 -1005 -542
-1263 -913 -30 -44 -72 -102 -92 -130 -42 -55 -85 -134 -188 -341 -70 -140
-122 -278 -162 -434 -12 -47 -26 -98 -30 -115 -19 -63 -59 -274 -70 -366 -16
-132 -7 -516 14 -629 94 -487 202 -763 435 -1114 194 -291 386 -491 666 -691
160 -114 199 -137 395 -236 173 -86 292 -133 455 -178 286 -79 489 -108 890
-126 88 -3 372 11 485 26 107 13 321 62 422 96 44 15 86 23 100 20 30 -8 29
-7 378 -366 162 -166 311 -311 330 -321 32 -17 38 -17 70 -3 65 28 234 84 341
112 115 31 149 45 149 63 0 14 -39 66 -104 138 -103 114 -334 359 -443 468
-119 119 -134 149 -90 169 41 19 311 224 402 305 126 113 237 237 381 428 108
143 137 191 224 365 103 208 163 356 206 510 98 347 109 420 108 710 0 218 -5
273 -44 476 -55 281 -129 497 -255 749 -111 222 -299 481 -482 662 -230 229
-446 384 -732 525 -207 103 -199 100 -366 152 -383 118 -555 153 -842 171
-190 11 -243 11 -448 -1z m533 -365 c270 -35 421 -82 667 -207 486 -245 824
-630 1041 -1185 97 -247 99 -255 141 -532 25 -168 27 -210 27 -460 0 -279 -7
-360 -50 -580 -33 -168 -125 -415 -225 -608 -66 -127 -203 -330 -291 -434
-102 -119 -286 -305 -325 -329 -53 -33 -34 -50 -477 420 -75 79 -120 111 -158
111 -36 0 -116 -40 -186 -94 -78 -59 -131 -96 -201 -139 -34 -21 -61 -44 -61
-53 0 -9 46 -63 103 -118 56 -56 146 -148 200 -203 55 -56 121 -119 148 -140
78 -61 76 -90 -9 -117 -194 -62 -802 -87 -1137 -46 -49 6 -136 26 -192 45
-121 40 -438 205 -527 273 -145 111 -354 321 -426 427 -143 212 -190 295 -281
500 -93 212 -143 373 -168 545 -6 41 -18 122 -27 180 -43 285 -21 765 47 1035
38 153 155 452 237 605 186 348 493 673 804 850 209 120 326 170 487 209 285
70 543 84 839 45z"/>
<path d="M19981 28422 c-429 -2 -568 -5 -579 -14 -13 -11 -14 -322 -10 -2621
3 -1434 8 -2611 12 -2615 4 -4 157 -7 339 -7 l332 0 2 1071 c2 686 6 1081 12
1098 12 30 27 32 97 12 86 -26 316 -74 414 -87 59 -8 202 -13 380 -13 253 0
300 2 420 23 350 60 573 143 810 302 177 119 300 241 419 417 179 264 266 644
232 1008 -35 386 -109 592 -301 844 -129 169 -279 284 -542 416 -164 83 -353
125 -683 154 -141 12 -571 16 -1354 12z m984 -332 c201 -12 326 -43 470 -116
269 -137 448 -323 573 -599 116 -256 155 -480 123 -715 -13 -93 -71 -289 -119
-395 -113 -253 -341 -480 -599 -596 -183 -82 -341 -104 -693 -95 -140 3 -284
10 -320 16 -179 27 -218 35 -257 51 -23 10 -46 27 -52 38 -8 14 -11 380 -11
1198 0 1051 2 1181 16 1201 l15 22 352 0 c194 -1 420 -5 502 -10z"/>
<path d="M36830 27014 c-120 -21 -287 -118 -421 -242 -74 -68 -113 -121 -184
-252 -61 -112 -121 -200 -136 -200 -23 0 -30 69 -32 324 l-2 271 -310 0 -309
0 -7 -25 c-3 -14 -4 -752 -2 -1640 4 -1835 6 -2066 17 -2077 4 -5 144 -10 311
-12 l303 -3 5 48 c2 27 4 398 3 824 -1 426 1 969 4 1205 7 486 13 535 92 725
88 213 147 307 261 416 80 76 107 95 205 142 148 70 195 76 295 37 184 -71
260 -115 352 -201 86 -80 125 -109 134 -98 5 5 18 35 29 66 27 72 154 329 183
368 22 29 22 30 3 51 -64 73 -413 249 -539 273 -69 13 -185 13 -255 0z"/>
<path d="M24935 27014 c-311 -33 -448 -60 -630 -124 -121 -42 -263 -119 -360
-195 -101 -79 -302 -286 -311 -320 -8 -30 8 -51 81 -105 28 -20 97 -89 155
-152 58 -64 111 -119 119 -122 20 -9 49 21 78 79 69 137 347 444 465 514 159
93 264 115 548 115 235 0 342 -16 455 -68 211 -96 364 -419 400 -841 14 -169
24 -539 14 -557 -13 -25 -36 -12 -135 79 -165 150 -314 234 -539 304 -171 53
-385 74 -586 58 -472 -37 -871 -271 -1097 -643 -83 -137 -110 -206 -148 -386
-69 -328 -25 -675 120 -934 55 -99 177 -256 249 -322 272 -248 655 -352 1127
-303 267 27 665 173 835 306 177 139 199 128 182 -90 -6 -77 -7 -131 -1 -137
11 -11 589 -18 601 -7 10 11 11 1896 0 2257 -8 293 -19 447 -43 590 -33 205
-99 397 -167 484 -132 173 -217 256 -327 320 -142 82 -373 152 -604 182 -114
14 -409 25 -481 18z m335 -1682 c122 -33 276 -129 381 -238 108 -114 241 -314
281 -426 21 -59 23 -79 23 -303 0 -263 -7 -309 -62 -391 -16 -23 -46 -68 -67
-100 -55 -81 -256 -279 -343 -337 -98 -65 -166 -93 -281 -117 -53 -11 -113
-28 -132 -37 -23 -11 -65 -17 -123 -18 -75 -1 -93 2 -114 18 -15 12 -58 26
-105 34 -96 17 -169 48 -257 110 -220 157 -352 361 -407 632 -25 128 -15 331
24 471 71 257 238 478 453 602 83 48 229 102 317 118 82 15 328 4 412 -18z"/>
<path d="M32475 27005 c-144 -17 -220 -31 -330 -61 -313 -87 -437 -158 -697
-401 -189 -176 -187 -163 -38 -296 70 -63 130 -127 166 -177 46 -66 60 -80 83
-80 22 0 32 10 60 60 49 90 227 314 322 406 100 97 183 153 288 193 99 38 193
53 371 58 220 7 413 -22 523 -79 109 -55 218 -200 291 -385 81 -203 100 -324
116 -735 11 -273 7 -308 -32 -287 -13 7 -59 47 -103 89 -84 80 -250 195 -332
231 -269 117 -521 162 -793 140 -322 -26 -546 -110 -795 -296 -238 -178 -441
-521 -477 -805 -16 -123 -13 -429 5 -520 60 -307 304 -649 572 -801 127 -72
276 -126 415 -150 137 -25 435 -30 570 -10 273 40 663 188 792 300 61 54 138
111 149 111 4 0 16 -15 25 -32 14 -28 16 -52 11 -163 -4 -71 -2 -136 2 -144
14 -21 558 -21 572 0 10 15 6 2461 -5 2584 -3 39 -8 111 -11 160 -18 269 -81
453 -215 632 -75 101 -174 192 -278 255 -276 168 -792 253 -1227 203z m330
-1650 c275 -26 487 -181 720 -524 113 -166 118 -189 113 -516 -3 -219 -5 -244
-24 -285 -58 -123 -376 -448 -519 -529 -72 -41 -212 -91 -256 -91 -10 0 -42
-9 -70 -20 -29 -12 -87 -24 -129 -27 -67 -5 -81 -3 -106 15 -17 11 -66 27
-115 35 -96 18 -172 48 -256 104 -229 152 -392 404 -434 674 -18 114 -6 314
26 424 118 411 444 704 830 745 69 7 100 6 220 -5z"/>
<path d="M28625 27004 c-353 -39 -684 -195 -843 -400 -105 -134 -197 -339
-221 -494 -18 -111 -14 -304 9 -400 57 -237 214 -454 436 -602 115 -77 186
-111 379 -180 147 -52 276 -100 335 -124 19 -8 59 -19 88 -24 29 -5 61 -14 72
-20 10 -5 27 -10 37 -10 75 0 528 -197 626 -271 179 -137 251 -266 250 -449 0
-161 -39 -279 -134 -404 -83 -110 -182 -171 -326 -200 -44 -9 -109 -25 -143
-36 -46 -15 -90 -20 -164 -20 -156 1 -437 49 -554 96 -171 68 -367 244 -500
448 -43 67 -55 116 -47 187 l7 58 -49 7 c-61 10 -409 11 -445 1 -18 -5 -28
-14 -28 -26 0 -31 59 -250 85 -314 91 -223 291 -431 520 -542 117 -56 310
-123 435 -149 215 -45 644 -61 865 -32 448 59 747 245 928 576 73 133 113 354
104 573 -7 173 -27 259 -91 392 -72 152 -175 261 -363 385 -114 76 -159 99
-315 159 -101 40 -217 85 -258 102 -41 17 -120 43 -175 57 -200 50 -676 219
-779 275 -130 72 -179 118 -242 229 -71 124 -83 247 -38 388 81 249 299 416
570 435 49 3 107 8 129 9 22 2 114 -1 205 -5 184 -10 287 -34 373 -89 84 -53
223 -170 259 -218 35 -46 69 -130 82 -203 6 -34 10 -37 74 -59 42 -13 101 -23
157 -26 50 -2 107 -6 128 -9 51 -7 87 17 87 58 0 46 -29 154 -60 222 -145 324
-481 543 -966 630 -87 16 -414 28 -499 19z"/>
<path d="M36560 21127 c-30 -7 -61 -16 -67 -20 -14 -9 -18 -143 -5 -164 8 -13
194 -35 218 -26 8 3 17 16 20 30 10 38 -2 154 -17 169 -21 20 -87 25 -149 11z"/>
<path d="M22230 21121 l-45 -6 -3 -632 -2 -633 27 -7 c16 -4 62 -7 103 -7 l75
-1 5 110 c6 126 28 188 85 231 61 46 86 35 187 -86 48 -58 107 -131 130 -162
24 -32 59 -65 78 -74 32 -16 229 -48 238 -39 10 9 -22 76 -52 111 -18 21 -62
80 -96 129 -35 50 -89 125 -119 168 -84 118 -91 130 -91 155 0 34 36 76 153
180 164 145 192 202 98 202 -114 -1 -241 -70 -364 -200 -47 -49 -100 -110
-118 -135 -32 -45 -60 -60 -96 -53 -27 5 -31 57 -32 419 -1 288 -3 328 -17
333 -18 7 -79 6 -144 -3z"/>
<path d="M38185 21124 c-16 -3 -40 -7 -51 -9 -22 -5 -22 -5 -28 -527 -3 -288
-2 -575 2 -638 l7 -115 73 -9 c114 -14 118 -10 125 116 8 158 54 255 130 273
24 6 33 1 69 -36 86 -93 177 -199 194 -226 31 -49 76 -92 108 -102 50 -16 175
-33 191 -27 30 11 15 54 -45 133 -234 304 -280 371 -280 411 0 36 15 55 158
196 107 105 167 195 145 217 -18 18 -162 -33 -258 -91 -62 -38 -106 -77 -195
-173 -165 -178 -201 -199 -219 -129 -5 20 -11 191 -13 379 -2 188 -6 344 -8
347 -8 8 -74 14 -105 10z"/>
<path d="M29888 21113 c-10 -2 -20 -14 -23 -26 -3 -12 -4 -296 -3 -632 l3
-610 29 -14 c22 -10 45 -11 98 -5 l69 9 2 295 c2 355 -1 343 115 398 70 33 85
36 168 37 83 0 93 -2 126 -27 51 -39 57 -77 63 -395 3 -153 5 -281 5 -285 0
-3 14 -11 30 -17 35 -12 191 -3 201 11 3 5 2 32 -2 61 -4 29 -10 151 -13 272
-6 263 -32 409 -87 486 -26 37 -100 66 -203 79 -117 16 -276 -6 -349 -49 -64
-37 -78 14 -67 244 4 82 5 156 3 163 -5 12 -125 16 -165 5z"/>
<path d="M39280 21110 c-13 -8 -15 -83 -18 -553 -3 -546 3 -712 29 -728 8 -5
44 -9 80 -9 50 0 70 4 80 17 12 13 14 127 14 647 l0 631 -85 3 c-47 1 -92 -2
-100 -8z"/>
<path d="M20600 21049 c-56 -38 -110 -89 -110 -105 0 -6 -21 -40 -46 -75 -59
-79 -225 -359 -277 -464 -44 -90 -82 -145 -101 -145 -26 0 -76 70 -138 195
-36 72 -79 153 -96 180 -17 28 -52 84 -77 125 -76 124 -169 252 -197 273 -34
26 -107 33 -133 14 -19 -14 -20 -30 -25 -249 -3 -128 -3 -397 0 -598 l5 -365
80 -5 c44 -3 91 -2 104 2 l23 8 -4 400 c-2 220 -1 400 2 400 8 0 152 -251 224
-390 61 -118 130 -223 170 -262 20 -18 51 -23 80 -12 33 13 164 216 274 426
55 104 123 216 138 229 22 18 27 -65 23 -431 l-4 -355 60 -12 c33 -7 78 -12
100 -10 l40 2 -3 570 c-3 529 -5 621 -18 668 -8 26 -43 21 -94 -14z"/>
<path d="M34843 20767 c-23 -7 -50 -19 -60 -28 -61 -52 -117 -63 -147 -30 -24
27 -137 51 -235 51 -91 0 -186 -29 -247 -75 -50 -38 -125 -136 -151 -198 -73
-174 -40 -382 82 -524 115 -135 386 -175 552 -82 68 37 100 38 109 3 7 -26 0
-200 -12 -314 -6 -54 -5 -55 27 -74 25 -15 53 -20 104 -20 l70 -1 2 65 c1 36
2 326 3 644 0 455 -3 581 -12 588 -16 10 -33 9 -85 -5z m-288 -220 c39 -14 74
-36 102 -63 61 -62 74 -93 75 -184 0 -69 -4 -86 -26 -122 -32 -53 -51 -75
-101 -114 -70 -54 -103 -67 -164 -62 -81 6 -144 41 -200 113 -66 83 -71 94
-71 172 0 108 43 180 149 253 62 43 129 44 236 7z"/>
<path d="M32303 20763 c-22 -3 -34 -11 -40 -26 -10 -30 -4 -1240 7 -1251 19
-19 184 -5 216 19 18 13 18 15 2 67 -11 33 -20 105 -23 189 -6 118 -4 137 10
149 14 12 20 12 38 0 109 -69 125 -74 257 -74 192 0 276 36 373 159 78 99 113
277 83 422 -23 114 -38 144 -105 213 -89 91 -144 112 -301 118 -125 4 -128 4
-243 -34 l-117 -38 -42 41 c-46 44 -65 52 -115 46z m591 -223 c69 -33 110 -85
126 -158 33 -157 -29 -295 -165 -364 -47 -24 -86 -29 -143 -18 -125 23 -215
133 -228 279 -13 136 43 221 181 278 46 19 175 10 229 -17z"/>
<path d="M40538 20751 c-62 -22 -84 -43 -108 -108 -19 -50 -59 -137 -88 -188
-6 -11 -22 -47 -36 -80 -92 -227 -109 -266 -117 -271 -5 -3 -9 -15 -9 -27 -1
-21 -2 -20 -28 8 -20 22 -45 81 -84 200 -63 192 -118 331 -153 390 -26 45 -80
71 -173 82 -71 8 -74 -6 -23 -111 23 -46 41 -89 41 -96 0 -6 17 -48 39 -93 21
-45 50 -113 64 -152 32 -88 78 -197 89 -209 4 -6 8 -16 8 -23 0 -7 16 -47 36
-89 25 -54 37 -95 41 -145 5 -63 4 -72 -21 -109 -43 -66 -67 -73 -221 -64
-129 6 -133 6 -144 -15 -9 -15 -9 -32 -1 -61 19 -71 100 -111 224 -112 175 -1
272 87 414 375 45 91 82 169 82 173 0 4 22 57 49 118 27 61 56 131 66 156 9
25 31 75 47 112 56 129 111 283 112 318 1 32 -1 35 -29 36 -16 1 -51 -5 -77
-15z"/>
<path d="M25677 20746 c-46 -13 -97 -49 -97 -69 0 -9 -59 -141 -81 -180 -6
-11 -26 -60 -45 -110 -60 -158 -109 -259 -137 -285 -18 -16 -20 -15 -38 7 -11
13 -26 49 -35 80 -16 59 -46 148 -88 266 -38 107 -122 267 -148 282 -24 13
-144 18 -172 7 -23 -9 -21 -18 29 -129 46 -100 67 -151 132 -320 65 -169 118
-289 147 -332 46 -71 62 -186 30 -231 -30 -43 -64 -52 -206 -52 -161 0 -182
-8 -186 -66 -2 -31 2 -44 20 -61 34 -32 120 -62 209 -74 72 -10 82 -9 122 10
60 29 144 103 187 165 38 55 123 221 181 356 17 41 37 84 44 95 7 11 21 45 30
75 10 30 34 96 55 145 20 50 50 124 66 165 16 41 43 99 61 129 34 56 50 112
38 130 -8 14 -58 13 -118 -3z"/>
<path d="M27882 20751 c-19 -5 -38 -13 -42 -17 -4 -5 -10 -124 -12 -264 -4
-239 -6 -258 -27 -307 -27 -62 -48 -82 -125 -122 -98 -52 -171 -42 -257 36
-65 59 -73 98 -75 388 -1 138 -2 255 -3 262 -2 17 -56 26 -116 18 -92 -11 -90
-5 -87 -227 4 -244 18 -420 38 -480 8 -26 36 -70 61 -98 79 -88 158 -115 321
-108 98 4 113 7 167 36 85 46 101 44 149 -23 12 -17 24 -20 77 -18 37 2 66 8
71 15 4 7 8 209 8 449 0 355 -3 439 -14 448 -18 15 -94 22 -134 12z"/>
<path d="M29086 20745 c-27 -8 -79 -29 -115 -47 -61 -30 -69 -38 -100 -98 -29
-56 -33 -75 -33 -137 0 -63 3 -76 31 -117 17 -25 41 -52 54 -61 32 -23 164
-61 311 -90 71 -14 140 -32 153 -40 26 -18 38 -54 29 -91 -17 -67 -180 -84
-366 -38 -125 31 -203 36 -224 14 -8 -8 -18 -38 -22 -66 -8 -66 11 -88 93
-103 32 -7 85 -19 118 -28 125 -34 358 -12 452 43 101 59 139 132 130 249 -8
104 -32 134 -140 176 -45 17 -121 37 -169 44 -153 23 -200 36 -224 61 -44 43
-21 119 45 148 44 19 184 23 261 7 97 -20 146 -24 168 -12 29 16 39 74 19 116
-13 26 -25 35 -74 48 -132 37 -306 47 -397 22z"/>
<path d="M35343 20751 c-34 -3 -67 -11 -73 -17 -17 -17 -13 -523 4 -599 53
-229 144 -305 365 -305 118 0 164 11 273 67 26 13 30 11 67 -22 37 -33 42 -35
113 -35 53 0 79 4 87 14 17 21 13 860 -5 884 -10 13 -31 18 -97 20 -121 5
-117 14 -117 -221 0 -323 -19 -406 -108 -474 -50 -38 -97 -53 -168 -53 -72 0
-105 15 -137 61 -47 65 -59 164 -54 431 3 162 1 230 -7 237 -17 14 -75 19
-143 12z"/>
<path d="M21240 20735 c-36 -8 -80 -14 -98 -14 -21 -1 -42 -10 -58 -26 -22
-22 -25 -32 -22 -92 4 -92 12 -94 194 -59 77 14 174 26 217 26 73 0 79 -2 113
-33 33 -30 36 -39 41 -100 3 -37 2 -67 -3 -67 -5 -1 -83 -5 -174 -10 -178 -9
-254 -25 -339 -68 -78 -39 -94 -73 -87 -185 4 -70 10 -97 30 -130 33 -57 81
-100 141 -129 43 -20 65 -23 166 -23 l116 0 85 44 c93 48 109 48 136 1 19 -33
32 -40 86 -42 66 -2 66 -2 66 287 1 335 -13 417 -91 543 -19 31 -109 72 -183
83 -87 12 -260 9 -336 -6z m385 -522 c12 -11 15 -25 11 -46 -3 -16 -6 -38 -6
-48 0 -51 -130 -136 -225 -146 -90 -11 -174 41 -195 118 -21 78 37 118 174
120 34 0 84 4 111 9 82 12 113 11 130 -7z"/>
<path d="M23550 20737 c-208 -62 -330 -230 -330 -458 0 -148 112 -339 235
-400 82 -40 159 -52 290 -46 196 8 345 77 345 159 0 55 -23 78 -79 78 -26 0
-51 -4 -56 -9 -6 -5 -45 -21 -87 -35 -110 -37 -211 -36 -293 2 -92 44 -155
128 -128 171 9 14 37 16 189 17 98 1 210 7 249 13 38 5 106 12 150 15 98 6
113 11 121 42 10 40 -34 213 -69 273 -37 61 -127 135 -202 164 -65 25 -268 33
-335 14z m291 -178 c57 -29 105 -80 120 -127 22 -73 18 -75 -258 -82 -131 -4
-246 -3 -255 2 -27 13 -23 76 7 120 67 98 272 145 386 87z"/>
<path d="M26253 20740 c-80 -17 -135 -49 -202 -118 -76 -79 -113 -152 -132
-260 -11 -63 -10 -83 5 -154 65 -301 270 -429 591 -367 127 24 273 137 333
256 67 131 47 331 -44 464 -36 52 -145 138 -206 161 -60 23 -271 34 -345 18z
m301 -204 c92 -54 134 -141 123 -255 -6 -75 -37 -132 -106 -201 -107 -107
-219 -114 -346 -20 -61 45 -102 116 -113 196 -11 78 1 127 44 185 69 95 149
131 271 125 66 -3 91 -9 127 -30z"/>
<path d="M31333 20731 c-35 -10 -81 -31 -104 -47 -157 -108 -236 -337 -181
-520 46 -152 135 -265 238 -303 48 -19 82 -23 184 -24 213 -3 302 26 401 130
82 85 109 145 120 262 9 100 2 173 -27 263 -33 101 -181 221 -302 244 -97 19
-254 16 -329 -5z m347 -196 c42 -23 60 -41 78 -75 21 -41 23 -56 20 -160 -3
-104 -6 -119 -30 -161 -58 -98 -151 -147 -260 -135 -73 7 -116 27 -166 75 -56
54 -84 120 -89 205 -4 68 -3 74 32 131 49 81 71 103 130 132 44 21 61 24 140
21 77 -3 98 -8 145 -33z"/>
<path d="M36535 20742 c-16 -2 -33 -7 -38 -11 -4 -4 -7 -200 -7 -436 0 -352 2
-431 13 -443 20 -20 204 -23 216 -3 12 18 6 874 -5 878 -23 7 -152 18 -179 15z"/>
<path d="M37320 20739 c-192 -37 -338 -235 -340 -460 0 -126 81 -289 183 -367
101 -77 246 -99 432 -66 128 23 181 56 237 143 31 50 38 115 13 124 -23 10
-125 -21 -177 -53 -77 -48 -116 -60 -190 -60 -111 0 -197 54 -248 158 -27 53
-37 159 -21 217 46 170 246 250 411 165 73 -38 149 -70 168 -70 33 0 52 32 52
90 0 49 -3 56 -39 90 -49 47 -113 77 -193 90 -74 12 -224 11 -288 -1z"/>
</g>
</svg>
